Coordinates
version=1
nRows=17
nColumns=24
inDegrees=yes

Units are S.I. units (second, meters, Newtons, ...)
Angles are in degrees.

endheader
time	pelvis_tilt	pelvis_list	pelvis_rotation	pelvis_tx	pelvis_ty	pelvis_tz	hip_flexion_r	hip_adduction_r	hip_rotation_r	knee_angle_r	ankle_angle_r	subtalar_angle_r	mtp_angle_r	hip_flexion_l	hip_adduction_l	hip_rotation_l	knee_angle_l	ankle_angle_l	subtalar_angle_l	mtp_angle_l	lumbar_extension	lumbar_bending	lumbar_rotation
      1.89500000	      4.59339770	      1.35027363	      0.18904891	      0.75012139	      0.89266345	      0.03272737	     -3.38832458	     -1.87026319	     -2.29707788	    -59.27082404	     -6.54987254	     -9.50952630	     53.97496450	     16.46059842	      5.02644143	      0.30667712	    -23.46403990	     11.71591018	     -4.78643430	     24.95311229	    -13.97095381	     -3.81588705	     -4.08735108
      1.90000000	      4.61632400	      1.68248764	      0.00112286	      0.75670455	      0.89333393	      0.03260739	     -2.28557647	     -2.19867919	     -2.01437158	    -60.91325430	     -6.99379234	    -10.17548192	     53.60769977	     15.94214868	      5.32387682	      0.03046778	    -23.44572182	     12.27201379	     -4.53563418	     24.88421744	    -14.02344177	     -4.23692664	     -4.01693136
      1.90500000	      4.64009555	      1.97355502	     -0.20849925	      0.76321342	      0.89404878	      0.03256501	     -1.17403918	     -2.46412334	     -1.70295141	    -62.47514512	     -7.13973471	    -10.69512429	     53.10066386	     15.40908265	      5.56707841	     -0.29986190	    -23.39007268	     12.82088812	     -4.25812499	     24.75337387	    -14.07902701	     -4.61795330	     -3.94042525
      1.91000000	      4.66999378	      2.20457670	     -0.33548147	      0.76969446	      0.89481571	      0.03247592	     -0.09347065	     -2.65073083	     -1.47726406	    -63.94110088	     -6.85079211	    -10.74946381	     50.76159719	     14.85827810	      5.75758284	     -0.55209187	    -23.32017875	     13.52473546	     -3.66339652	     23.72138631	    -14.14718338	     -4.91961430	     -3.95363376
      1.91500000	      4.72980727	      2.42677389	     -0.55220483	      0.77614024	      0.89572544	      0.03244731	      0.96444548	     -2.82826414	     -1.17529685	    -65.28306661	     -6.55401614	    -10.98636696	     50.56148695	     14.20668712	      5.94716046	     -0.80919163	    -23.09158875	     13.94371595	     -3.52901130	     23.63793956	    -14.23984695	     -5.22004301	     -3.80816643
      1.92000000	      4.76741786	      2.58267937	     -0.76322692	      0.78256875	      0.89664703	      0.03247613	      2.03529866	     -2.91055136	     -0.86847909	    -66.51735653	     -6.01724113	    -11.02766985	     50.19314837	     13.57070094	      6.05581579	     -1.10427066	    -22.84932346	     14.43373996	     -3.18802445	     23.49365480	    -14.30353638	     -5.44777649	     -3.68441578
      1.92500000	      4.82941823	      2.68713446	     -0.90417592	      0.78898124	      0.89764863	      0.03246341	      3.04527027	     -2.93167236	     -0.65466748	    -67.63697442	     -5.11606362	    -10.79875162	     48.39027102	     12.89025546	      6.12713261	     -1.29503356	    -22.57683471	     14.97336174	     -2.70726784	     22.56712560	    -14.40086251	     -5.60941874	     -3.63042097
      1.93000000	      4.87722770	      2.79487090	     -1.10118704	      0.79537029	      0.89867575	      0.03251041	      4.08117750	     -2.95246109	     -0.39807777	    -68.65028056	     -4.32327022	    -10.75122166	     48.38294875	     12.19200066	      6.20618318	     -1.52923031	    -22.21811208	     15.29827998	     -2.53628587	     22.54037322	    -14.47689655	     -5.78076824	     -3.56336355
      1.93500000	      4.92524813	      2.84675318	     -1.29793742	      0.80174410	      0.89972825	      0.03256373	      5.10098641	     -2.90607866	     -0.14760049	    -69.55094252	     -3.36968037	    -10.52076408	     48.29959246	     11.48567392	      6.22788263	     -1.76105865	    -21.84915003	     15.66710229	     -2.26581645	     22.48275745	    -14.54937494	     -5.88652711	     -3.44283448
      1.94000000	      4.98332526	      2.87103257	     -1.47809273	      0.80811468	      0.90081656	      0.03261304	      6.08941793	     -2.83022932	      0.06052978	    -70.33665963	     -2.33993685	    -10.25733284	     48.15375655	     10.74970640	      6.23179043	     -1.95352426	    -21.44216879	     15.99440739	     -2.02773899	     22.38775116	    -14.63330555	     -5.95917988	     -3.34800677
      1.94500000	      5.03684140	      2.87277190	     -1.65780128	      0.81448336	      0.90192186	      0.03266531	      7.06605033	     -2.72840152	      0.25155797	    -71.01378950	     -1.25304246	     -9.95159943	     47.94065366	     10.00326858	      6.22014710	     -2.12956556	    -21.00383662	     16.29874256	     -1.81428359	     22.25752557	    -14.70942958	     -6.00388698	     -3.24611499
      1.95000000	      5.13775823	      2.81460602	     -1.81017990	      0.82082871	      0.90310966	      0.03270476	      7.96098204	     -2.55642277	      0.39203076	    -71.58094851	      0.02122022	     -9.51435167	     45.85015000	      9.19234500	      6.15553666	     -2.25219608	    -20.54897609	     16.68108752	     -1.52461559	     21.26887646	    -14.84509963	     -5.97686917	     -3.12700929
      1.95500000	      5.16580755	      2.80436314	     -1.93529794	      0.82721005	      0.90416279	      0.03267289	      8.92380094	     -2.46023232	      0.48167889	    -72.04838105	      1.08664225	     -9.28130801	     45.90378803	      8.45576011	      6.15984809	     -2.32911329	    -20.07299758	     16.92506447	     -1.42196335	     21.24662161	    -14.89140626	     -5.99086902	     -3.10633992
      1.96000000	      5.22784437	      2.75567748	     -2.07122911	      0.83359405	      0.90527756	      0.03266313	      9.82311159	     -2.32097934	      0.56320035	    -72.39573331	      2.16231823	     -9.03560030	     45.85140131	      7.65958666	      6.12663954	     -2.40647210	    -19.55270198	     17.13440081	     -1.32145920	     21.19182462	    -14.97467653	     -5.96336513	     -3.03080401
      1.96500000	      5.35622402	      2.68320294	     -2.20156761	      0.84000879	      0.90648680	      0.03267656	     10.61595571	     -2.15822956	      0.60972797	    -72.63214883	      3.30654813	     -8.78448761	     44.48509134	      6.76920987	      6.07271630	     -2.47751229	    -18.99880732	     17.39329842	     -1.14997494	     20.71325095	    -15.12883635	     -5.91154277	     -2.94884690
      1.97000000	      5.37754160	      2.61870811	     -2.28066352	      0.84641799	      0.90751318	      0.03258368	     11.50696041	     -2.02452170	      0.59441686	    -72.77468158	      4.31881361	     -8.63263789	     44.49224373	      6.00733086	      6.04189103	     -2.46450640	    -18.45799909	     17.52945412	     -1.13054263	     20.68470024	    -15.16566941	     -5.84728144	     -2.95853357
      1.97500000	      5.46704039	      2.54474838	     -2.36365836	      0.85283805	      0.90861507	      0.03252978	     12.29372187	     -1.88298243	      0.56648716	    -72.80852808	      5.29725608	     -8.51822087	     44.35651702	      5.14645335	      6.00391433	     -2.45067207	    -17.86712131	     17.65103629	     -1.10560115	     20.63436869	    -15.27730226	     -5.77997026	     -2.93320495
